<svg width="43" height="44" viewBox="0 0 43 44" fill="none" xmlns="http://www.w3.org/2000/svg">
<path d="M21.5 0.887207C9.632 0.887207 0 10.5216 0 22.3925C0 34.2634 9.632 43.8977 21.5 43.8977C33.368 43.8977 43 34.2634 43 22.3925C43 10.5216 33.368 0.887207 21.5 0.887207ZM21.5 7.33878C25.069 7.33878 27.95 10.2205 27.95 13.7904C27.95 17.3602 25.069 20.2419 21.5 20.2419C17.931 20.2419 15.05 17.3602 15.05 13.7904C15.05 10.2205 17.931 7.33878 21.5 7.33878ZM21.5 37.8762C16.125 37.8762 11.3735 35.1236 8.6 30.9515C8.6645 26.672 17.2 24.3279 21.5 24.3279C25.7785 24.3279 34.3355 26.672 34.4 30.9515C31.6265 35.1236 26.875 37.8762 21.5 37.8762Z" fill="#BDBDBD"/>
</svg>
